<svg xmlns="http://www.w3.org/2000/svg" width="28" height="28"><path fill="#fff" d="M18.42 6.9a2.726 2.726 0 012.723 2.723v9.407a2.726 2.726 0 01-2.723 2.723H9.013A2.726 2.726 0 016.29 19.03V9.623A2.726 2.726 0 019.013 6.9zm.186 7.426a4.895 4.895 0 00-4.89-4.89 4.895 4.895 0 00-4.89 4.89 4.895 4.895 0 004.89 4.89 4.895 4.895 0 004.89-4.89zm1.314-5.035a1.158 1.158 0 00-2.314 0 1.158 1.158 0 002.314 0z"/><path fill="#fff" d="M13.714 11.5a2.827 2.827 0 00-2.824 2.823 2.828 2.828 0 002.824 2.824 2.827 2.827 0 002.823-2.824 2.826 2.826 0 00-2.823-2.823z"/><path fill="#fff" d="M27.426.61v27.426H0V.61zm-4.22 9.01a4.795 4.795 0 00-4.79-4.79H9.01a4.794 4.794 0 00-4.79 4.79v9.406a4.794 4.794 0 004.79 4.79h9.406a4.794 4.794 0 004.79-4.79z"/></svg>