<svg width="2047" height="900" viewBox="0 0 2047 900" fill="none" xmlns="http://www.w3.org/2000/svg">
<circle cx="450" cy="450" r="450" fill="#292929"/>
<path d="M529.161 564.839H404.135V582.281H529.161V564.839Z" fill="white"/>
<path d="M529.335 324.631V305.981H412.943H395.502V324.631V432.56H355.611V450.002H395.502V527.366H412.943V450.002H490.825V432.56H412.943V324.631H529.335Z" fill="white"/>
<path d="M101.76 305.981V558.277V572.437V575.719H257.006V558.277H119.201V305.981H101.76Z" fill="white"/>
<path d="M294.824 306.499H277.383V576.927H294.824V306.499Z" fill="white"/>
<path d="M604.108 576.582L792.855 309.607L770.233 310.125L688.034 425.998L604.108 305.981H581.486L676.982 441.368L581.486 576.582H604.108Z" fill="white"/>
<path d="M698.396 474.696L771.442 576.927L797 576.582L710.656 460.191L698.396 474.696Z" fill="white"/>
<path d="M1134.17 606.902H1024.15V458.42H1039.09V592.972H1107.63V458.42H1122.57V592.972H1148V629.108H1134.17V606.902ZM1170.71 458.42H1255.81V473.056H1185.55V519.488H1255.2V534.024H1185.55V592.266H1255.2V606.902H1170.71V458.42ZM1273.57 458.42H1290.93L1326.46 516.359L1362.3 458.42H1379.46L1335.25 530.39L1382.38 606.902H1365.02L1326.46 544.622L1287.7 606.902H1270.34L1317.68 530.39L1273.57 458.42Z" fill="#222222"/>
<path d="M1023.97 393V244.518H1098.36V259.154H1038.6V306.596H1045.57C1064.07 306.596 1077.5 308.245 1085.84 311.542C1094.25 314.772 1100.85 319.92 1105.63 326.986C1110.47 333.984 1112.89 341.79 1112.89 350.404C1112.89 361.709 1108.66 371.634 1100.18 380.181C1091.7 388.727 1079.89 393 1064.75 393H1023.97ZM1038.6 321.535V378.465H1056.87C1067.71 378.465 1075.65 377.422 1080.7 375.336C1085.74 373.182 1089.75 369.919 1092.71 365.544C1095.74 361.103 1097.25 356.157 1097.25 350.706C1097.25 343.843 1095.13 338.022 1090.89 333.244C1086.65 328.466 1081.37 325.337 1075.04 323.857C1068.72 322.309 1059.33 321.535 1046.88 321.535H1038.6ZM1259.26 393H1243.81V279.241L1146 393H1142.67V244.518H1157.51V360.296L1255.93 244.518H1259.26V393ZM1298.62 258.953C1309.05 246.84 1321.94 240.783 1337.28 240.783C1349.46 240.783 1359.52 244.316 1367.46 251.382C1375.4 258.381 1379.37 267.465 1379.37 278.636C1379.37 294.45 1371.94 305.788 1357.07 312.652C1376.65 318.709 1386.44 331.831 1386.44 352.019C1386.44 365.477 1382.07 376.311 1373.32 384.521C1364.57 392.731 1352.59 396.836 1337.38 396.836C1326.75 396.836 1317.5 394.649 1309.63 390.275C1301.82 385.833 1294.45 378.095 1287.52 367.059L1299.03 360.296C1305.89 370.39 1312.32 376.883 1318.31 379.777C1324.3 382.603 1330.52 384.016 1336.98 384.016C1346.4 384.016 1354.41 381.291 1361 375.84C1367.6 370.39 1370.9 362.382 1370.9 351.817C1370.9 346.231 1369.75 341.386 1367.46 337.281C1365.24 333.109 1362.08 329.745 1357.98 327.188C1353.87 324.63 1349.97 323.015 1346.27 322.342C1342.57 321.67 1336.48 321.333 1328 321.333H1325.47V308.312H1330.42C1352.42 308.312 1363.43 299.396 1363.43 281.563C1363.43 273.286 1360.9 266.725 1355.86 261.88C1350.88 256.967 1344.55 254.511 1336.88 254.511C1326.92 254.511 1317.57 259.02 1308.82 268.037L1298.62 258.953ZM1415.51 244.518H1430.45V306.798H1505.95V244.518H1520.89V393H1505.95V321.333H1430.45V393H1415.51V244.518ZM1557.13 244.518H1642.22V259.154H1571.97V305.586H1641.62V320.122H1571.97V378.364H1641.62V393H1557.13V244.518ZM1806.15 272.075L1794.44 281.058C1787.98 272.647 1780.2 266.287 1771.12 261.981C1762.1 257.607 1752.18 255.42 1741.34 255.42C1729.5 255.42 1718.53 258.28 1708.44 263.999C1698.34 269.652 1690.5 277.29 1684.92 286.913C1679.4 296.468 1676.64 307.235 1676.64 319.213C1676.64 337.315 1682.83 352.422 1695.21 364.535C1707.66 376.648 1723.34 382.704 1742.25 382.704C1763.05 382.704 1780.44 374.562 1794.44 358.277L1806.15 367.16C1798.74 376.581 1789.49 383.882 1778.39 389.063C1767.35 394.178 1755 396.735 1741.34 396.735C1715.37 396.735 1694.88 388.088 1679.87 370.793C1667.29 356.191 1661 338.56 1661 317.901C1661 296.165 1668.6 277.895 1683.81 263.091C1699.08 248.219 1718.19 240.783 1741.14 240.783C1755 240.783 1767.52 243.542 1778.69 249.06C1789.86 254.511 1799.01 262.183 1806.15 272.075Z" fill="#222222"/>
</svg>
