<svg width="22" height="20" viewBox="0 0 7 5" fill="none" xmlns="http://www.w3.org/2000/svg">
<path d="M7 0.105036C7 0.103954 7 0.102991 6.9997 0.101908C6.99941 0.100825 6.99929 0.0981183 6.99917 0.0962534C6.99851 0.087901 6.99687 0.0796601 6.99427 0.0717088C6.99392 0.070626 6.99427 0.0694829 6.99362 0.0684001C6.99297 0.0673172 6.99303 0.0674977 6.99285 0.0670164C6.98948 0.0582776 6.98497 0.0500418 6.97944 0.042532C6.9782 0.0408476 6.9769 0.0393436 6.97554 0.0377193C6.97017 0.0310863 6.96402 0.0251468 6.95723 0.0200327C6.95652 0.0194913 6.95593 0.0188296 6.95522 0.0183483C6.94763 0.0132562 6.9394 0.00921057 6.93077 0.00631671C6.92876 0.00559481 6.92675 0.00499314 6.92486 0.00439156C6.91577 0.00161322 6.90635 0.000135218 6.89686 0H0.103143C0.0936543 0.000135218 0.0842304 0.00161322 0.0751418 0.00439156C0.0730742 0.00499314 0.0711248 0.00559481 0.0692344 0.00631671C0.0605965 0.00921057 0.0523729 0.0132562 0.0447779 0.0183483C0.044069 0.0188296 0.0434783 0.0194913 0.0427694 0.0200327C0.0359806 0.0251468 0.0298307 0.0310863 0.0244565 0.0377193C0.0231569 0.0393436 0.0217982 0.0408476 0.0205577 0.042532C0.0150263 0.0500418 0.0105156 0.0582776 0.00714791 0.0670164C0.00714791 0.0674977 0.00655717 0.0679188 0.00637995 0.0684001C0.00620273 0.0688814 0.00608457 0.070626 0.00573013 0.0717088C0.00313365 0.0796601 0.00148743 0.087901 0.000827029 0.0962534C0.000827029 0.0981784 0.000295347 0.100043 0.000295347 0.101908C0.000295347 0.103773 0 0.103954 0 0.105036V4.89454C0 4.89593 0.000354441 4.89725 0.000413514 4.89863C0.000585865 4.90242 0.000960556 4.9062 0.00153592 4.90994C0.00200851 4.91301 0.00242202 4.91596 0.00313091 4.91909C0.00404271 4.92273 0.00514701 4.92633 0.00643902 4.92986C0.00744327 4.93268 0.00838845 4.93551 0.009629 4.93822C0.0112671 4.94177 0.0131014 4.94522 0.0151229 4.94857C0.0165406 4.95097 0.0179584 4.95344 0.0195534 4.95572C0.0218437 4.95891 0.0243091 4.96196 0.0269376 4.96487C0.028887 4.96703 0.0308365 4.9692 0.032845 4.97124C0.0340855 4.97239 0.0350307 4.97377 0.0363303 4.97491C0.0376299 4.97606 0.038457 4.97594 0.0394022 4.97672C0.047467 4.98334 0.0564696 4.98867 0.0661035 4.99254C0.0681711 4.99338 0.0702977 4.99386 0.0724244 4.99453C0.0817435 4.99763 0.0914521 4.99935 0.101252 4.99964C0.101961 4.99964 0.102611 5 0.10332 5H0.104679H6.89532H6.89668C6.89739 5 6.89804 4.99964 6.89869 4.99964C6.90851 4.99936 6.91824 4.99763 6.92758 4.99453C6.92964 4.99386 6.93171 4.99338 6.93348 4.99254C6.94314 4.98868 6.95216 4.98334 6.96024 4.97672C6.96119 4.97594 6.96237 4.9757 6.96332 4.97491C6.96426 4.97413 6.96556 4.97239 6.9668 4.97124C6.96893 4.9692 6.97088 4.96709 6.97271 4.96487C6.97534 4.96196 6.9778 4.95891 6.98009 4.95572C6.98169 4.95344 6.98311 4.95103 6.98452 4.94857C6.98654 4.94522 6.98838 4.94177 6.99002 4.93822C6.99126 4.93551 6.9922 4.93268 6.99321 4.92986C6.9945 4.92633 6.9956 4.92273 6.99651 4.91909C6.99722 4.91608 6.99764 4.91307 6.99811 4.90994C6.99869 4.9062 6.99906 4.90242 6.99923 4.89863C6.99923 4.89725 6.99965 4.89593 6.99965 4.89454L7 0.105036ZM2.42474 2.2782L3.43242 3.16114C3.45118 3.17757 3.47511 3.1866 3.49985 3.1866C3.5246 3.1866 3.54852 3.17757 3.56728 3.16114L4.57502 2.2782L6.67285 4.78927H0.326973L2.42474 2.2782ZM0.206522 4.60849V0.334541L2.26819 2.14085L0.206522 4.60849ZM4.73157 2.14085L6.79324 0.334541V4.60849L4.73157 2.14085ZM6.61785 0.210314L4.52044 2.04821C4.52009 2.04851 4.51961 2.04869 4.51926 2.04905C4.5189 2.04941 4.51855 2.0499 4.51814 2.05026L3.49988 2.94246L2.48163 2.05026C2.48121 2.0499 2.48092 2.04941 2.48051 2.04905L2.47932 2.04821L0.381793 0.210314H6.61785Z" fill="black"/>
</svg>
