<svg xmlns="http://www.w3.org/2000/svg" width="25" height="25"><path fill="#f6be2d" d="M24.945 19.37c-.07-.213-.52-.527-1.349-.94a44.21 44.21 0 00-.958-.533c-.415-.225-.79-.432-1.128-.622-.338-.19-.654-.373-.95-.55a23.743 23.743 0 00-.444-.31 4.99 4.99 0 00-.63-.383 1.163 1.163 0 00-.506-.124c-.237 0-.533.169-.888.506a8.68 8.68 0 00-.976 1.101c-.296.397-.61.764-.94 1.101-.332.338-.605.506-.818.506-.106 0-.24-.03-.4-.088a4.17 4.17 0 01-.364-.151 6.668 6.668 0 01-.425-.25 10.565 10.565 0 00-.338-.203c-1.621-.9-3.012-1.93-4.172-3.09-1.16-1.16-2.19-2.55-3.09-4.172a8.27 8.27 0 00-.204-.338 6.4 6.4 0 01-.248-.426 3.849 3.849 0 01-.151-.364 1.201 1.201 0 01-.089-.4c0-.212.169-.485.506-.816.337-.332.704-.645 1.1-.941a8.642 8.642 0 001.102-.976c.337-.356.506-.651.506-.888a1.16 1.16 0 00-.125-.506 4.935 4.935 0 00-.381-.63 23.33 23.33 0 00-.311-.444 38.99 38.99 0 01-.55-.95 89.68 89.68 0 01-.622-1.128 42.198 42.198 0 00-.533-.958C6.155.574 5.842.124 5.63.053A.994.994 0 005.256 0c-.32 0-.737.06-1.252.178S3.084.42 2.788.55c-.592.25-1.22.971-1.883 2.166C.302 3.83 0 4.93 0 6.02c0 .319.02.63.062.932.042.302.116.642.222 1.02.107.38.193.66.257.844.065.183.187.512.364.986.178.473.284.763.32.87a16.03 16.03 0 001.474 3.107c.934 1.515 2.21 3.08 3.825 4.696 1.616 1.616 3.182 2.891 4.697 3.826a16.1 16.1 0 003.107 1.474c.107.036.397.142.87.32.473.177.802.299.985.364.184.065.465.151.843.258.38.106.72.18 1.022.222.302.041.612.062.932.062 1.089 0 2.19-.302 3.302-.905 1.195-.663 1.917-1.29 2.166-1.883.13-.296.255-.701.373-1.216.119-.515.178-.932.178-1.252a.99.99 0 00-.054-.374z"/></svg>