<svg version="1.1" xmlns="http://www.w3.org/2000/svg" x="0" y="0" viewBox="0 0 40 40" xml:space="preserve"><style>.st0{fill:none;stroke:#000;stroke-width:.7188;stroke-linecap:round;stroke-linejoin:round;stroke-miterlimit:1.7969}</style><path class="st0" d="M21.3 38.4c10.9-1 18.8-10.8 17.4-21C37.5 7.4 28 .5 18.2 1.4 8.2 2.4.2 11.3 1 21.3 2.3 37 17.5 38.8 18.2 38.5"/><path class="st0" d="M14.7 14.9c-.1-.4 1.2-.8 2.4-1 2.1-.3 3.8.6 3.9 1.1.1.5-.1 5.5.7 5.6.8.1 3.3-5.4 3.8-5.9.6-.5 5.7-.3 5.7.2s-4.3 5.5-4.3 6.4c0 .8 5 5.1 4.6 5.7s-5.8.7-6.1.4c-.3-.2-2.3-3.2-3.3-3.1-1 .2-.3 3-.6 3.4-.3.4-2.1.3-3.5.1-7.6-1.4-12.1-12.6-11.7-13.2.4-.6 5-.3 5.5.1s2.3 6.9 4.3 6.4c.5-.3.3-4.7.3-4.7"/></svg>
