<svg xmlns="http://www.w3.org/2000/svg" width="28" height="28"><path fill="#fff" d="M27.996 0v27.426H.57V0zm-7.013 13.658c.499-.698 1.034-1.368 1.537-2.063.469-.65.95-1.297 1.195-2.073.158-.496.019-.714-.488-.801-.087-.015-.178-.015-.267-.015l-3.009-.004c-.37-.005-.574.156-.705.485-.178.444-.36.888-.572 1.315-.477.972-1.01 1.911-1.76 2.705-.165.175-.348.397-.624.306-.344-.126-.446-.694-.44-.886l-.003-3.473c-.067-.496-.178-.718-.67-.814H12.05c-.416 0-.626.162-.85.422-.126.152-.166.249.098.3.518.098.812.434.889.953.124.832.115 1.666.043 2.5a2.31 2.31 0 01-.158.714c-.151.359-.396.43-.716.21-.29-.2-.493-.48-.694-.762a16.836 16.836 0 01-1.835-3.401c-.14-.347-.384-.557-.751-.563a75.697 75.697 0 00-2.71.002c-.541.01-.703.273-.481.766.982 2.187 2.076 4.313 3.505 6.25.733.992 1.575 1.87 2.663 2.492 1.233.704 2.56.917 3.958.852.654-.031.85-.202.88-.853.02-.446.072-.891.292-1.292.216-.394.544-.468.921-.223.189.123.347.278.497.444.368.402.725.818 1.106 1.207.48.488 1.049.776 1.762.717l2.766.001c.445-.03.676-.576.42-1.074a5.385 5.385 0 00-.665-.957c-.565-.68-1.231-1.257-1.86-1.872-.568-.554-.604-.875-.148-1.515z"/></svg>