<svg width="20" height="20" viewBox="0 0 7 7" fill="none" xmlns="http://www.w3.org/2000/svg">
<path d="M3.50087 0H3.49913C1.56931 0 0 1.56975 0 3.5C0 4.26562 0.24675 4.97525 0.666313 5.55144L0.230125 6.85169L1.57544 6.42163C2.12888 6.78825 2.78906 7 3.50087 7C5.43069 7 7 5.42981 7 3.5C7 1.57019 5.43069 0 3.50087 0Z" fill="#4CAF50"/>
<path d="M5.53725 4.94221C5.45281 5.18065 5.11768 5.3784 4.85037 5.43615C4.6675 5.47509 4.42862 5.50615 3.6245 5.17277C2.59593 4.74665 1.93356 3.70146 1.88193 3.63365C1.8325 3.56584 1.46631 3.08021 1.46631 2.57796C1.46631 2.07571 1.72137 1.83115 1.82418 1.72615C1.90862 1.63996 2.04818 1.60059 2.18206 1.60059C2.22537 1.60059 2.26431 1.60277 2.29931 1.60452C2.40212 1.6089 2.45375 1.61502 2.52156 1.77734C2.606 1.98077 2.81162 2.48302 2.83612 2.53465C2.86106 2.58627 2.886 2.65627 2.851 2.72409C2.81818 2.79409 2.78931 2.82515 2.73768 2.88465C2.68606 2.94415 2.63706 2.98965 2.58543 3.05352C2.53818 3.10909 2.48481 3.16859 2.54431 3.2714C2.60381 3.37202 2.80943 3.70759 3.11218 3.97709C3.50287 4.3249 3.81962 4.43602 3.93293 4.48327C4.01737 4.51827 4.118 4.50996 4.17968 4.44434C4.258 4.3599 4.35468 4.2199 4.45312 4.08209C4.52312 3.98321 4.6115 3.97096 4.70425 4.00596C4.79875 4.03877 5.29881 4.28596 5.40162 4.33715C5.50443 4.38877 5.57225 4.41327 5.59718 4.45659C5.62168 4.4999 5.62168 4.70334 5.53725 4.94221Z" fill="#FAFAFA"/>
</svg>
