<svg xmlns="http://www.w3.org/2000/svg" viewBox="0 0 40 40"><style>.st0{fill:none;stroke:#000;stroke-width:.7031;stroke-linecap:round;stroke-linejoin:round;stroke-miterlimit:1.7578}</style><path class="st0" d="M16.9 31.1c.1-5.4-.1-10.4-.1-10.8 0-.5-3 .2-3.3-.2-.4-.4-.6-3.2-.1-3.4s2.7.2 3.2-.1-2-9.7 8.2-7.6c.3.1 0 3.3-.2 3.5s-2.2-.3-3.4.6c-1.1.9-.7 3.3-.4 3.4.2.2 3.5 0 3.8.3.2.2.3 3.3 0 3.5s-3.7-.4-4-.2c-.3.2.7 10.6.4 11-.3.4-1.4.4-2 .4"/><path class="st0" d="M20.1 38.2c10.7-.3 19-9.4 18.4-19.4C37.8 9 29 1.6 19.3 1.9c-9.8.3-18.1 8.5-18 18.4.3 15.4 15 18 15.7 17.9"/></svg>