<svg width="36" height="40" viewBox="0 0 36 40" fill="none" xmlns="http://www.w3.org/2000/svg">
<path d="M28.2991 20.2544C28.2991 14.3033 23.6801 9.4671 17.9962 9.4671C12.3124 9.4671 7.69336 14.3033 7.69336 20.2544C7.69336 26.2055 12.3124 31.0416 17.9962 31.0416C23.6801 31.0416 28.2991 26.1981 28.2991 20.2544ZM17.9962 11.9775C22.3543 11.9775 25.9014 15.6914 25.9014 20.2544C25.9014 24.8174 22.3543 28.5313 17.9962 28.5313C13.6381 28.5313 10.091 24.8174 10.091 20.2544C10.091 15.684 13.6381 11.9775 17.9962 11.9775Z" fill="#292929"/>
<path d="M33.1087 36.0671H2.89128V10.0959H0V39.3185H36V10.0959H33.1087V36.0671Z" fill="#292929"/>
<path d="M0 0.702911V11.2318H2.89128V3.73014H33.1087V11.2318H36V0.702911H0Z" fill="#292929"/>
<path d="M32.0862 4.74905H28.7437V8.24882H32.0862V4.74905Z" fill="#292929"/>
</svg>
