<svg version="1.1" xmlns="http://www.w3.org/2000/svg" x="0" y="0" viewBox="0 0 40 40" xml:space="preserve"><style>.st0{fill:none;stroke:#000;stroke-width:.7188;stroke-linecap:round;stroke-linejoin:round;stroke-miterlimit:1.7969}</style><path class="st0" d="M29.1 19.1c.1 2.6.2 6.4-.1 7.5-.3 1.1-1.4 2.1-2.3 2.5-.9.4-13.3.2-13.9 0s-1.6-1.6-1.9-2.1-.1-13 .1-14c.3-1 1.1-1.6 2-2 .8-.4 9.6-.2 11.2-.1 1.6.1 3 .9 3.2 2.1.1 1.2-.7 1.7-1.7 1.6-1-.1-1.7-1-1.1-1.7.6-.7 3.7-.9 4.2 0s.5 3.2-.1 3.7-4.5-.2-5.1 0c-.6.2 2.4 2.6.4 6.1-1.3 2.1-4.1 3-6.3 1.9-2.4-1.3-2.8-4.4-2-6.4.1-.2 1.1-2.6 3.4-2.9 1.4-.2 4 .4 3.1 1.2-.9.8-8.3-.2-10.1.2"/><path class="st0" d="M14.8 2.1C4.3 5.4-1.3 16.6 2.1 26.3c3.4 9.4 14.1 14.2 23.5 11.2 9.5-3.1 15.4-13.4 12.6-23.1C33.7-.6 18.4.9 17.8 1.3"/></svg>
