<svg width="900" height="900" viewBox="0 0 900 900" fill="none" xmlns="http://www.w3.org/2000/svg">
<circle cx="450" cy="450" r="450" fill="#292929"/>
<path d="M746.175 241H153.562V255.871H746.175V241Z" fill="white"/>
<path d="M745.438 643.83H152.826V658.7H745.438V643.83Z" fill="white"/>
<path d="M517.227 580.52H410.63V595.39H517.227V580.52Z" fill="white"/>
<path d="M517.375 375.718V359.817H418.14H403.269V375.718V467.739H369.258V482.609H403.269V548.57H418.14V482.609H484.542V467.739H418.14V375.718H517.375Z" fill="white"/>
<path d="M152.826 359.817V574.924V586.997V589.795H285.188V574.924H167.696V359.817H152.826Z" fill="white"/>
<path d="M317.432 360.259H302.561V590.826H317.432V360.259Z" fill="white"/>
<path d="M581.126 590.531L742.052 362.909L722.765 363.35L652.682 462.144L581.126 359.817H561.839L643.259 475.248L561.839 590.531H581.126Z" fill="white"/>
<path d="M661.516 503.664L723.795 590.826L745.586 590.531L671.969 491.296L661.516 503.664Z" fill="white"/>
<path d="M156.506 331.696V282.078H177.413V287.084H162.101V302.543H167.843C171.671 302.543 174.616 303.427 176.53 305.341C178.444 307.255 179.475 310.2 179.475 314.175V319.622C179.475 323.45 178.591 326.542 176.677 328.604C174.763 330.665 171.966 331.696 167.991 331.696H156.506V331.696ZM162.101 326.69H168.138C170.199 326.69 171.671 326.101 172.555 325.07C173.438 324.039 174.027 322.273 174.027 320.064V313.88C174.027 311.525 173.438 309.758 172.408 308.874C171.377 307.991 169.905 307.549 167.843 307.549H162.101V326.69Z" fill="white"/>
<path d="M270.023 331.696V282.078H275.029V319.033L280.182 303.427L287.249 282.078H293.433V331.696H288.427V292.237L283.127 308.58L275.765 331.548H270.023V331.696Z" fill="white"/>
<path d="M383.834 319.77V314.911H388.987V320.064C388.987 322.273 389.429 324.039 390.459 325.364C391.343 326.69 392.815 327.278 394.876 327.278C396.938 327.278 398.41 326.69 399.293 325.364C400.177 324.039 400.619 322.125 400.619 319.77V315.647C400.619 310.788 398.557 308.285 394.288 308.285H391.932V303.279H394.582C396.496 303.279 397.968 302.691 398.999 301.513C400.177 300.335 400.619 298.715 400.619 296.507V294.298C400.619 291.795 400.177 289.881 399.293 288.556C398.41 287.231 396.938 286.642 394.876 286.642C392.962 286.642 391.49 287.231 390.459 288.556C389.576 289.881 388.987 291.648 388.987 293.857V297.243H383.834V294.151C383.834 290.323 384.717 287.231 386.484 285.023C388.251 282.814 391.048 281.636 394.876 281.636C398.705 281.636 401.502 282.814 403.416 285.023C405.183 287.231 406.213 290.323 406.213 294.151V295.329C406.213 297.832 405.772 300.04 404.741 301.807C403.71 303.574 402.238 304.899 400.177 305.635C402.238 306.371 403.858 307.549 404.888 309.463C405.919 311.23 406.361 313.439 406.361 315.942V319.917C406.361 323.745 405.477 326.69 403.563 329.045C401.796 331.254 398.852 332.432 395.024 332.432C391.196 332.432 388.398 331.254 386.631 329.045C384.717 326.542 383.834 323.598 383.834 319.77Z" fill="white"/>
<path d="M496.615 331.696V282.078H502.21V304.457H514.43V282.078H520.025V331.696H514.43V309.316H502.21V331.696H496.615V331.696Z" fill="white"/>
<path d="M610.72 331.696V282.078H631.186V287.084H616.315V304.016H628.388V309.022H616.315V326.69H631.186V331.696H610.72Z" fill="white"/>
<path d="M720.85 319.77V294.151C720.85 292.237 721.145 290.47 721.586 288.998C722.028 287.378 722.764 286.2 723.648 285.023C724.531 283.992 725.709 283.109 727.034 282.52C728.359 281.931 730.126 281.636 731.893 281.636C735.721 281.636 738.518 282.814 740.285 285.023C742.052 287.231 742.935 290.323 742.935 294.151V298.568H737.782V293.857C737.782 291.648 737.34 289.881 736.457 288.556C735.573 287.231 734.101 286.642 732.04 286.642C729.979 286.642 728.506 287.231 727.623 288.556C726.739 289.881 726.15 291.648 726.15 293.857V320.064C726.15 322.273 726.592 324.039 727.623 325.364C728.506 326.69 729.979 327.278 732.04 327.278C734.101 327.278 735.573 326.69 736.457 325.364C737.34 324.039 737.782 322.273 737.782 320.064V313.586H742.935V319.77C742.935 323.598 742.052 326.542 740.285 328.898C738.518 331.107 735.721 332.284 731.893 332.284C728.065 332.284 725.267 331.107 723.5 328.898C721.881 326.542 720.85 323.598 720.85 319.77Z" fill="white"/>
</svg>
