<svg width="32" height="32" viewBox="0 0 32 32" fill="none" xmlns="http://www.w3.org/2000/svg">
<circle cx="16" cy="16" r="16" fill="#16BC00"/>
<path d="M23.0811 20.7107C23.0384 20.5819 22.7664 20.3921 22.2654 20.1419C22.1296 20.063 21.9362 19.9558 21.686 19.8198C21.4355 19.6838 21.2082 19.5585 21.0043 19.444C20.8001 19.3295 20.6088 19.2186 20.43 19.1114C20.4014 19.09 20.312 19.0274 20.1617 18.9234C20.0113 18.8197 19.8844 18.7428 19.7805 18.6926C19.6767 18.6427 19.5747 18.6176 19.4745 18.6176C19.3314 18.6176 19.1527 18.7196 18.938 18.9234C18.7234 19.1275 18.5266 19.3492 18.3478 19.5891C18.1689 19.829 17.9792 20.0506 17.7791 20.2546C17.5786 20.4587 17.4139 20.5606 17.2852 20.5606C17.2206 20.5606 17.1401 20.5426 17.0436 20.507C16.9471 20.4713 16.8737 20.4406 16.8233 20.4159C16.7734 20.3907 16.6877 20.3408 16.566 20.2654C16.444 20.1902 16.3762 20.1491 16.3619 20.1419C15.3815 19.5979 14.5407 18.9753 13.8394 18.2742C13.1382 17.5727 12.5155 16.732 11.9717 15.7515C11.9645 15.7372 11.9233 15.6692 11.8482 15.5476C11.773 15.4259 11.7229 15.3401 11.6978 15.2899C11.6728 15.2398 11.6424 15.1665 11.6067 15.0699C11.5709 14.9733 11.553 14.8928 11.553 14.8283C11.553 14.6996 11.655 14.5349 11.859 14.3345C12.0629 14.1343 12.2848 13.9445 12.5245 13.7658C12.7643 13.587 12.986 13.3901 13.19 13.1755C13.3939 12.9608 13.4959 12.782 13.4959 12.6389C13.4959 12.5388 13.4708 12.4367 13.4208 12.333C13.3707 12.229 13.2938 12.1021 13.19 11.9518C13.0861 11.8015 13.0235 11.7121 13.002 11.6834C12.8948 11.5046 12.784 11.3132 12.6694 11.1092C12.5547 10.9053 12.4296 10.678 12.2936 10.4275C12.1577 10.1772 12.0504 9.98393 11.9716 9.84798C11.7213 9.34714 11.5317 9.07508 11.4028 9.0323C11.3527 9.01083 11.2775 9 11.1774 9C10.9841 9 10.7319 9.03572 10.4206 9.10738C10.1092 9.17893 9.8642 9.25397 9.68528 9.33281C9.32746 9.48302 8.94821 9.91952 8.54742 10.6422C8.18246 11.3147 8 11.9804 8 12.6387C8 12.8318 8.01252 13.0196 8.03756 13.2022C8.0626 13.3847 8.10734 13.5905 8.17182 13.8195C8.23619 14.0485 8.28811 14.2186 8.32736 14.3293C8.36665 14.4402 8.44 14.6387 8.54738 14.9251C8.65461 15.2113 8.71909 15.3866 8.74056 15.451C8.991 16.1523 9.28798 16.7785 9.63144 17.3295C10.1965 18.2455 10.9677 19.1921 11.9445 20.1689C12.9213 21.1457 13.8677 21.9168 14.7837 22.4822C15.3347 22.8256 15.9611 23.1225 16.6623 23.3731C16.7267 23.3945 16.902 23.4588 17.1881 23.5664C17.4744 23.6737 17.673 23.7471 17.7839 23.7865C17.8947 23.8259 18.0649 23.8778 18.2937 23.9423C18.5229 24.0068 18.7285 24.0515 18.911 24.0767C19.0935 24.1015 19.2814 24.1142 19.4745 24.1142C20.1328 24.1142 20.7985 23.9316 21.4711 23.5667C22.1937 23.1661 22.6301 22.7867 22.7804 22.4287C22.8594 22.2499 22.9343 22.0048 23.0058 21.6934C23.0776 21.3822 23.1133 21.13 23.1133 20.9367C23.1135 20.8363 23.1027 20.7612 23.0811 20.7107Z" fill="white"/>
</svg>
