<svg width="1167" height="112" viewBox="0 0 1167 112" fill="none" xmlns="http://www.w3.org/2000/svg">
<path d="M18.5344 3.39136H38.2059L62.6158 77.0518L87.3846 3.39136H106.769L124.574 109H105.189L93.8461 42.3036L71.3746 109H53.6415L31.4573 42.3036L19.8985 109H0.298772L18.5344 3.39136ZM190.624 0.734991C205.557 0.734991 218.384 6.14346 229.106 16.9604C239.875 27.7773 245.259 40.9634 245.259 56.5188C245.259 71.9305 239.946 84.973 229.321 95.6464C218.743 106.32 205.892 111.656 190.768 111.656C174.925 111.656 161.763 106.176 151.281 95.2156C140.799 84.2551 135.558 71.2365 135.558 56.1598C135.558 46.0608 137.999 36.7755 142.881 28.3038C147.763 19.8321 154.464 13.1314 162.983 8.20154C171.551 3.22384 180.764 0.734991 190.624 0.734991ZM190.409 20.4065C180.645 20.4065 172.436 23.8047 165.783 30.6012C159.131 37.3977 155.804 46.0369 155.804 56.5188C155.804 68.1972 159.992 77.4347 168.368 84.2311C174.877 89.5439 182.344 92.2003 190.768 92.2003C200.292 92.2003 208.405 88.7542 215.106 81.862C221.806 74.9698 225.157 66.4742 225.157 56.3752C225.157 46.324 221.783 37.8284 215.034 30.8884C208.285 23.9004 200.077 20.4065 190.409 20.4065ZM253.803 3.39136H312.171V23.2064H292.93V109H272.541V23.2064H253.803V3.39136ZM324.519 3.39136H344.478V109H324.519V3.39136ZM417.062 0.734991C431.995 0.734991 444.822 6.14346 455.543 16.9604C466.312 27.7773 471.697 40.9634 471.697 56.5188C471.697 71.9305 466.384 84.973 455.758 95.6464C445.181 106.32 432.33 111.656 417.205 111.656C401.363 111.656 388.201 106.176 377.719 95.2156C367.237 84.2551 361.996 71.2365 361.996 56.1598C361.996 46.0608 364.437 36.7755 369.319 28.3038C374.201 19.8321 380.901 13.1314 389.421 8.20154C397.988 3.22384 407.202 0.734991 417.062 0.734991ZM416.846 20.4065C407.082 20.4065 398.874 23.8047 392.221 30.6012C385.568 37.3977 382.242 46.0369 382.242 56.5188C382.242 68.1972 386.43 77.4347 394.806 84.2311C401.315 89.5439 408.781 92.2003 417.205 92.2003C426.73 92.2003 434.843 88.7542 441.543 81.862C448.244 74.9698 451.594 66.4742 451.594 56.3752C451.594 46.324 448.22 37.8284 441.471 30.8884C434.723 23.9004 426.514 20.4065 416.846 20.4065ZM490.722 3.39136H509.963L555.265 72.8877V3.39136H575.367V109H556.054L510.824 39.719V109H490.722V3.39136ZM600.064 60.97H636.535V79.2056H600.064V60.97ZM661.304 3.39136H685.14C700.503 3.39136 711.919 5.30586 719.385 9.13486C726.852 12.916 733.002 19.0903 737.836 27.6577C742.67 36.225 745.087 46.2283 745.087 57.6675C745.087 65.8041 743.723 73.2946 740.995 80.1389C738.315 86.9354 734.582 92.5832 729.795 97.0822C725.057 101.581 719.912 104.692 714.36 106.415C708.808 108.138 699.187 109 685.499 109H661.304V3.39136ZM681.335 22.7757V89.3285H690.668C699.857 89.3285 706.51 88.2755 710.626 86.1696C714.79 84.0636 718.189 80.5218 720.821 75.5441C723.454 70.5664 724.77 64.44 724.77 57.1649C724.77 45.9651 721.635 37.278 715.365 31.1038C709.717 25.5517 700.647 22.7757 688.155 22.7757H681.335ZM764.256 3.39136H821.907V23.0629H784.215V42.16H821.907V61.4725H784.215V89.2567H821.907V109H764.256V3.39136ZM896.07 17.7501L881.208 30.8884C875.991 23.6133 870.679 19.9757 865.27 19.9757C862.638 19.9757 860.484 20.6937 858.809 22.1295C857.134 23.5175 856.296 25.097 856.296 26.8679C856.296 28.6388 856.894 30.314 858.091 31.8935C859.718 33.9994 864.624 38.5224 872.809 45.4625C880.467 51.8761 885.109 55.9205 886.736 57.5957C890.805 61.7118 893.677 65.6605 895.352 69.4416C897.075 73.1749 897.936 77.2672 897.936 81.7184C897.936 90.3815 894.945 97.5369 888.962 103.185C882.979 108.832 875.178 111.656 865.557 111.656C858.043 111.656 851.486 109.814 845.886 106.128C840.334 102.443 835.571 96.6515 831.599 88.7542L848.47 78.5594C853.544 87.8926 859.383 92.5592 865.988 92.5592C869.434 92.5592 872.33 91.5541 874.675 89.5439C877.02 87.5337 878.193 85.2123 878.193 82.5799C878.193 80.1868 877.308 77.7936 875.537 75.4005C873.766 73.0074 869.865 69.3459 863.834 64.4161C852.347 55.035 844.929 47.8078 841.578 42.7343C838.228 37.6131 836.553 32.5157 836.553 27.4423C836.553 20.1193 839.329 13.8493 844.881 8.63231C850.481 3.36743 857.373 0.734991 865.557 0.734991C870.822 0.734991 875.824 1.95549 880.562 4.39647C885.348 6.83746 890.518 11.2887 896.07 17.7501ZM915.813 3.39136H935.772V109H915.813V3.39136ZM1055.95 20.6219L1041.81 34.6217C1032.86 25.1449 1022.43 20.4065 1010.51 20.4065C1000.12 20.4065 991.412 23.8526 984.376 30.7448C977.388 37.637 973.894 46.0129 973.894 55.8726C973.894 66.0673 977.532 74.7065 984.807 81.7902C992.082 88.8738 1001.06 92.4156 1011.73 92.4156C1018.67 92.4156 1024.51 90.9558 1029.25 88.0362C1034.03 85.1166 1037.89 80.5457 1040.81 74.3236H1010.22V55.4418H1063.35L1063.49 59.8931C1063.49 69.1305 1061.1 77.8894 1056.31 86.1696C1051.53 94.4498 1045.33 100.768 1037.72 105.123C1030.11 109.479 1021.18 111.656 1010.94 111.656C999.979 111.656 990.191 109.287 981.576 104.549C973.009 99.7625 966.212 92.9661 961.187 84.1594C956.209 75.3527 953.72 65.8519 953.72 55.6572C953.72 41.6814 958.339 29.5243 967.576 19.186C978.537 6.88532 992.8 0.734991 1010.37 0.734991C1019.55 0.734991 1028.15 2.43411 1036.14 5.83235C1042.89 8.7041 1049.49 13.6339 1055.95 20.6219ZM1082.02 3.39136H1101.26L1146.56 72.8877V3.39136H1166.66V109H1147.35L1102.12 39.719V109H1082.02V3.39136Z" fill="#FCF9F6"/>
</svg>
