<svg width="20" height="20" viewBox="0 0 7 7" fill="none" xmlns="http://www.w3.org/2000/svg">
<g clip-path="url(#clip0)">
<path d="M5.98843 2.9373C5.99684 1.95039 5.15628 1.04566 4.1147 0.920547C4.09398 0.918086 4.07141 0.914353 4.04753 0.910389C3.99596 0.901844 3.94264 0.893066 3.88884 0.893066C3.67537 0.893066 3.6183 1.04302 3.60327 1.13246C3.58866 1.21941 3.6026 1.29243 3.64462 1.3496C3.71531 1.44572 3.8397 1.46278 3.93961 1.47647C3.9689 1.48052 3.99653 1.48428 4.01966 1.48947C4.95549 1.69858 5.27059 2.02733 5.42459 2.9552C5.42835 2.97787 5.43005 3.00581 5.43185 3.03544C5.43857 3.14636 5.45257 3.37711 5.70065 3.37711H5.70068C5.72134 3.37711 5.74353 3.37533 5.76663 3.37181C5.99766 3.3367 5.99042 3.12577 5.98694 3.02442C5.98596 2.99587 5.98503 2.96887 5.98745 2.95092C5.98808 2.94639 5.98841 2.94184 5.98843 2.9373Z" fill="#7F40BD"/>
<path d="M3.82773 0.558439C3.85544 0.560435 3.88169 0.562349 3.90354 0.565699C5.44025 0.80203 6.14696 1.53011 6.34281 3.07884C6.34613 3.10517 6.34665 3.13727 6.3472 3.17127C6.34916 3.29227 6.35317 3.544 6.62351 3.54921L6.6319 3.54929C6.71668 3.54929 6.78412 3.52372 6.83236 3.47324C6.91651 3.38523 6.91064 3.25447 6.9059 3.14937C6.90475 3.12359 6.90364 3.09931 6.90392 3.07805C6.92345 1.4941 5.55237 0.0577771 3.96985 0.00437498C3.96328 0.00415623 3.95702 0.0045117 3.95069 0.00540037C3.94759 0.00585154 3.94182 0.00642576 3.93195 0.00642576C3.91617 0.00642576 3.89676 0.00505857 3.87617 0.00366405C3.85127 0.00195507 3.82305 0 3.79445 0C3.54243 0 3.49452 0.179128 3.48839 0.285905C3.47426 0.532695 3.71299 0.550058 3.82773 0.558439Z" fill="#7F40BD"/>
<path d="M6.26876 5.08074C6.23608 5.05579 6.2023 5.02996 6.17067 5.00448C6.00289 4.86946 5.82439 4.745 5.65176 4.62464C5.61594 4.59969 5.58011 4.57471 5.54441 4.54966C5.32328 4.39433 5.12448 4.31885 4.93666 4.31885C4.68367 4.31885 4.46312 4.45863 4.28108 4.73426C4.20043 4.85646 4.10258 4.91586 3.98199 4.91586C3.9107 4.91586 3.82966 4.89552 3.74121 4.85536C3.02744 4.5317 2.51777 4.03544 2.22633 3.38036C2.08544 3.06375 2.13112 2.8568 2.37907 2.68836C2.51988 2.5928 2.78196 2.41489 2.7634 2.0742C2.74237 1.68731 1.88873 0.523199 1.52905 0.390993C1.37677 0.334993 1.21677 0.334473 1.05264 0.389694C0.639152 0.528695 0.342432 0.772806 0.194476 1.09558C0.0514961 1.40748 0.0579492 1.77369 0.213152 2.15464C0.661806 3.25607 1.29258 4.21638 2.08804 5.00883C2.86665 5.78457 3.82362 6.41999 4.93235 6.89741C5.03229 6.94041 5.13711 6.96387 5.21365 6.98098C5.23973 6.98684 5.26225 6.99184 5.27867 6.99634C5.28769 6.9988 5.29699 7.00013 5.30633 7.00021L5.31509 7.00025C5.31512 7.00025 5.31509 7.00025 5.31513 7.00025C5.8366 7.00025 6.46276 6.52374 6.65507 5.98047C6.82355 5.50479 6.51593 5.26966 6.26876 5.08074Z" fill="#7F40BD"/>
<path d="M4.05847 1.8166C3.96919 1.81885 3.78338 1.82346 3.71819 2.01271C3.68769 2.10113 3.69134 2.17792 3.72906 2.24092C3.78441 2.33335 3.89046 2.36168 3.98691 2.37722C4.33672 2.43336 4.51637 2.62679 4.5523 2.98592C4.56899 3.15337 4.68176 3.27031 4.82654 3.27031H4.82657C4.83726 3.27031 4.8482 3.26968 4.85909 3.26835C5.03322 3.24764 5.11764 3.1197 5.11001 2.88814C5.1128 2.64646 4.98632 2.3721 4.77121 2.15355C4.55533 1.93434 4.29514 1.81088 4.05847 1.8166Z" fill="#7F40BD"/>
</g>
<defs>
<clipPath id="clip0">
<rect width="7" height="7" fill="white"/>
</clipPath>
</defs>
</svg>
